<?xml version="1.0" encoding="UTF-8" standalone="no"?>
<!-- Created with Inkscape (http://www.inkscape.org/) -->

<svg
   width="417.50214px"
   height="1000.9969px"
   viewBox="0 0 4175.0214 10009.969"
   version="1.1"
   id="svg1"
   xml:space="preserve"
   xmlns="http://www.w3.org/2000/svg"
   xmlns:svg="http://www.w3.org/2000/svg"><defs
     id="defs1"><font
       id="EmbeddedFont_1"
       horiz-adv-x="2048"
       horiz-origin-x="0"
       horiz-origin-y="0"
       vert-origin-x="512"
       vert-origin-y="768"
       vert-adv-y="1024">
   <font-face
   font-family="Arial embedded"
   units-per-em="2048"
   font-weight="normal"
   font-style="normal"
   ascent="1852"
   descent="423"
   id="font-face2" />
   <missing-glyph
   horiz-adv-x="2048"
   d="M 0,0 L 2047,0 2047,2047 0,2047 0,0 Z"
   id="missing-glyph2" />
   <glyph
   unicode="”"
   horiz-adv-x="518"
   d="M 87,1272 L 87,1481 280,1481 280,1316 C 280,1227 270,1162 249,1123 220,1069 176,1028 115,1001 L 71,1072 C 107,1087 134,1110 152,1142 169,1173 179,1217 181,1272 L 87,1272 Z M 397,1272 L 397,1481 590,1481 590,1316 C 590,1227 580,1162 559,1123 530,1069 486,1028 425,1001 L 381,1072 C 417,1087 444,1110 462,1142 479,1173 489,1217 491,1272 L 397,1272 Z"
   id="glyph2" />
   <glyph
   unicode="“"
   horiz-adv-x="518"
   d="M 276,1220 L 276,1011 83,1011 83,1176 C 83,1265 94,1330 115,1370 143,1423 187,1464 248,1491 L 292,1421 C 255,1406 228,1383 211,1353 194,1322 184,1278 182,1220 L 276,1220 Z M 586,1220 L 586,1011 393,1011 393,1176 C 393,1265 404,1330 425,1370 453,1423 497,1464 558,1491 L 602,1421 C 565,1406 538,1383 521,1353 504,1322 494,1278 492,1220 L 586,1220 Z"
   id="glyph3" />
   <glyph
   unicode="Ó"
   horiz-adv-x="1397"
   d="M 99,714 C 99,957 164,1148 295,1286 426,1423 594,1492 801,1492 936,1492 1058,1460 1167,1395 1276,1330 1359,1240 1416,1125 1473,1009 1501,878 1501,731 1501,582 1471,449 1411,332 1351,215 1266,126 1156,66 1046,5 927,-25 800,-25 662,-25 539,8 430,75 321,142 239,233 183,348 127,463 99,585 99,714 Z M 299,711 C 299,534 347,395 442,294 537,192 656,141 799,141 945,141 1065,192 1160,295 1254,398 1301,543 1301,732 1301,851 1281,956 1241,1045 1200,1134 1141,1203 1064,1252 986,1301 899,1325 802,1325 665,1325 547,1278 448,1184 349,1089 299,932 299,711 Z M 677,1556 L 810,1836 1046,1836 826,1556 677,1556 Z"
   id="glyph4" />
   <glyph
   unicode="Í"
   horiz-adv-x="369"
   d="M 191,0 L 191,1466 385,1466 385,0 191,0 Z M 141,1556 L 274,1836 510,1836 290,1556 141,1556 Z"
   id="glyph5" />
   <glyph
   unicode="Á"
   horiz-adv-x="1366"
   d="M -3,0 L 560,1466 769,1466 1369,0 1148,0 977,444 364,444 203,0 -3,0 Z M 420,602 L 917,602 764,1008 C 717,1131 683,1233 660,1312 641,1218 615,1125 581,1032 L 420,602 Z M 541,1556 L 674,1836 910,1836 690,1556 541,1556 Z"
   id="glyph6" />
   <glyph
   unicode="y"
   horiz-adv-x="970"
   d="M 127,-409 L 107,-240 C 146,-251 181,-256 210,-256 250,-256 282,-249 306,-236 330,-223 350,-204 365,-180 376,-162 395,-117 420,-46 423,-36 429,-21 436,-2 L 33,1062 227,1062 448,447 C 477,369 502,287 525,201 546,284 570,364 599,443 L 826,1062 1006,1062 602,-18 C 559,-135 525,-215 501,-259 469,-318 432,-362 391,-390 350,-417 300,-431 243,-431 208,-431 170,-424 127,-409 Z"
   id="glyph7" />
   <glyph
   unicode="v"
   horiz-adv-x="971"
   d="M 430,0 L 26,1062 216,1062 444,426 C 469,357 491,286 512,212 528,268 550,335 579,414 L 815,1062 1000,1062 598,0 430,0 Z"
   id="glyph8" />
   <glyph
   unicode="u"
   horiz-adv-x="858"
   d="M 831,0 L 831,156 C 748,36 636,-24 494,-24 431,-24 373,-12 319,12 264,36 224,66 198,103 171,139 153,183 142,236 135,271 131,327 131,404 L 131,1062 311,1062 311,473 C 311,379 315,316 322,283 333,236 357,199 394,172 431,145 476,131 530,131 584,131 635,145 682,173 729,200 763,238 783,286 802,333 812,402 812,493 L 812,1062 992,1062 992,0 831,0 Z"
   id="glyph9" />
   <glyph
   unicode="t"
   horiz-adv-x="518"
   d="M 528,161 L 554,2 C 503,-9 458,-14 418,-14 353,-14 302,-4 266,17 230,38 205,65 190,99 175,132 168,203 168,311 L 168,922 36,922 36,1062 168,1062 168,1325 347,1433 347,1062 528,1062 528,922 347,922 347,301 C 347,250 350,217 357,202 363,187 373,176 388,167 402,158 422,154 449,154 469,154 495,156 528,161 Z"
   id="glyph10" />
   <glyph
   unicode="s"
   horiz-adv-x="880"
   d="M 63,317 L 241,345 C 251,274 279,219 325,181 370,143 434,124 516,124 599,124 660,141 700,175 740,208 760,248 760,293 760,334 742,366 707,389 682,405 621,425 523,450 391,483 300,512 249,537 198,561 159,595 133,638 106,681 93,728 93,780 93,827 104,871 126,912 147,952 177,985 214,1012 242,1033 280,1050 329,1065 377,1079 429,1086 484,1086 567,1086 641,1074 704,1050 767,1026 813,994 843,953 873,912 894,857 905,788 L 729,764 C 721,819 698,861 660,892 621,923 567,938 497,938 414,938 355,924 320,897 285,870 267,838 267,801 267,778 274,757 289,738 304,719 327,703 358,690 376,683 429,668 517,644 644,610 733,582 784,561 834,539 873,507 902,466 931,425 945,373 945,312 945,252 928,196 893,143 858,90 807,49 741,20 675,-9 600,-24 517,-24 379,-24 274,5 202,62 129,119 83,204 63,317 Z"
   id="glyph11" />
   <glyph
   unicode="r"
   horiz-adv-x="576"
   d="M 133,0 L 133,1062 295,1062 295,901 C 336,976 375,1026 410,1050 445,1074 483,1086 525,1086 586,1086 647,1067 710,1028 L 648,861 C 604,887 560,900 516,900 477,900 441,888 410,865 379,841 356,808 343,766 323,702 313,632 313,556 L 313,0 133,0 Z"
   id="glyph12" />
   <glyph
   unicode="o"
   horiz-adv-x="992"
   d="M 68,531 C 68,728 123,873 232,968 323,1047 435,1086 566,1086 712,1086 831,1038 924,943 1017,847 1063,715 1063,546 1063,409 1043,302 1002,224 961,145 901,84 823,41 744,-2 659,-24 566,-24 417,-24 297,24 206,119 114,214 68,352 68,531 Z M 253,531 C 253,395 283,293 342,226 401,158 476,124 566,124 655,124 730,158 789,226 848,294 878,398 878,537 878,668 848,768 789,836 729,903 655,937 566,937 476,937 401,903 342,836 283,769 253,667 253,531 Z"
   id="glyph13" />
   <glyph
   unicode="n"
   horiz-adv-x="860"
   d="M 135,0 L 135,1062 297,1062 297,911 C 375,1028 488,1086 635,1086 699,1086 758,1075 812,1052 865,1029 905,998 932,961 959,924 977,879 988,828 995,795 998,736 998,653 L 998,0 818,0 818,646 C 818,719 811,774 797,811 783,847 758,876 723,898 687,919 645,930 597,930 520,930 454,906 399,857 343,808 315,716 315,580 L 315,0 135,0 Z"
   id="glyph14" />
   <glyph
   unicode="m"
   horiz-adv-x="1433"
   d="M 135,0 L 135,1062 296,1062 296,913 C 329,965 374,1007 429,1039 484,1070 547,1086 618,1086 697,1086 761,1070 812,1037 862,1004 897,959 918,900 1002,1024 1111,1086 1246,1086 1351,1086 1432,1057 1489,999 1546,940 1574,850 1574,729 L 1574,0 1395,0 1395,669 C 1395,741 1389,793 1378,825 1366,856 1345,882 1314,901 1283,920 1247,930 1206,930 1131,930 1069,905 1020,856 971,806 946,726 946,617 L 946,0 766,0 766,690 C 766,770 751,830 722,870 693,910 645,930 578,930 527,930 481,917 438,890 395,863 363,824 344,773 325,722 315,648 315,551 L 315,0 135,0 Z"
   id="glyph15" />
   <glyph
   unicode="l"
   horiz-adv-x="181"
   d="M 131,0 L 131,1466 311,1466 311,0 131,0 Z"
   id="glyph16" />
   <glyph
   unicode="i"
   horiz-adv-x="181"
   d="M 136,1259 L 136,1466 316,1466 316,1259 136,1259 Z M 136,0 L 136,1062 316,1062 316,0 136,0 Z"
   id="glyph17" />
   <glyph
   unicode="h"
   horiz-adv-x="862"
   d="M 135,0 L 135,1466 315,1466 315,940 C 399,1037 505,1086 633,1086 712,1086 780,1071 838,1040 896,1009 938,966 963,911 988,856 1000,777 1000,673 L 1000,0 820,0 820,673 C 820,763 801,829 762,870 723,911 667,931 596,931 543,931 493,917 446,890 399,862 365,824 345,777 325,730 315,664 315,581 L 315,0 135,0 Z"
   id="glyph18" />
   <glyph
   unicode="f"
   horiz-adv-x="620"
   d="M 178,0 L 178,922 19,922 19,1062 178,1062 178,1175 C 178,1246 184,1299 197,1334 214,1381 245,1419 289,1448 332,1477 393,1491 472,1491 523,1491 579,1485 640,1473 L 613,1316 C 576,1323 540,1326 507,1326 452,1326 414,1314 391,1291 368,1268 357,1224 357,1160 L 357,1062 564,1062 564,922 357,922 357,0 178,0 Z"
   id="glyph19" />
   <glyph
   unicode="e"
   horiz-adv-x="976"
   d="M 862,342 L 1048,319 C 1019,210 964,126 885,66 806,6 704,-24 581,-24 426,-24 303,24 212,120 121,215 75,349 75,522 75,701 121,839 213,938 305,1037 424,1086 571,1086 713,1086 829,1038 919,941 1009,844 1054,708 1054,533 1054,522 1054,506 1053,485 L 261,485 C 268,368 301,279 360,217 419,155 493,124 582,124 648,124 704,141 751,176 798,211 835,266 862,342 Z M 271,633 L 864,633 C 856,722 833,789 796,834 739,903 664,938 573,938 490,938 421,910 365,855 308,800 277,726 271,633 Z"
   id="glyph20" />
   <glyph
   unicode="d"
   horiz-adv-x="918"
   d="M 824,0 L 824,134 C 757,29 658,-24 527,-24 442,-24 365,-1 294,46 223,93 168,158 129,242 90,325 70,421 70,530 70,636 88,732 123,819 158,905 211,971 282,1017 353,1063 432,1086 519,1086 583,1086 640,1073 690,1046 740,1019 781,983 812,940 L 812,1466 991,1466 991,0 824,0 Z M 255,530 C 255,394 284,292 341,225 398,158 466,124 544,124 623,124 690,156 745,221 800,285 827,383 827,515 827,660 799,767 743,835 687,903 618,937 536,937 456,937 389,904 336,839 282,774 255,671 255,530 Z"
   id="glyph21" />
   <glyph
   unicode="c"
   horiz-adv-x="922"
   d="M 828,389 L 1005,366 C 986,244 936,149 857,80 777,11 679,-24 563,-24 418,-24 301,24 213,119 124,214 80,350 80,527 80,642 99,742 137,828 175,914 233,979 311,1022 388,1065 473,1086 564,1086 679,1086 774,1057 847,999 920,940 967,857 988,750 L 813,723 C 796,794 767,848 725,884 682,920 631,938 571,938 480,938 407,906 350,841 293,776 265,673 265,532 265,389 292,286 347,221 402,156 473,124 561,124 632,124 691,146 738,189 785,232 815,299 828,389 Z"
   id="glyph22" />
   <glyph
   unicode="b"
   horiz-adv-x="918"
   d="M 301,0 L 134,0 134,1466 314,1466 314,943 C 390,1038 487,1086 605,1086 670,1086 732,1073 791,1047 849,1020 897,983 935,936 972,888 1002,830 1023,763 1044,696 1055,624 1055,547 1055,365 1010,224 920,125 830,26 722,-24 596,-24 471,-24 372,28 301,133 L 301,0 Z M 299,539 C 299,412 316,320 351,263 408,170 484,124 581,124 660,124 728,158 785,227 842,295 871,397 871,532 871,671 844,773 789,839 734,905 667,938 589,938 510,938 442,904 385,836 328,767 299,668 299,539 Z"
   id="glyph23" />
   <glyph
   unicode="a"
   horiz-adv-x="975"
   d="M 828,131 C 761,74 697,34 636,11 574,-12 508,-24 437,-24 320,-24 231,5 168,62 105,119 74,191 74,280 74,332 86,380 110,423 133,466 164,500 203,526 241,552 284,572 332,585 367,594 421,603 492,612 637,629 744,650 813,674 814,699 814,714 814,721 814,794 797,846 763,876 717,917 649,937 558,937 473,937 411,922 371,893 330,863 300,810 281,735 L 105,759 C 121,834 147,895 184,942 221,988 274,1024 343,1049 412,1074 493,1086 584,1086 675,1086 748,1075 805,1054 862,1033 903,1006 930,974 957,941 975,900 986,851 992,820 995,765 995,685 L 995,445 C 995,278 999,172 1007,128 1014,83 1029,41 1052,0 L 864,0 C 845,37 833,81 828,131 Z M 813,533 C 748,506 650,484 519,465 445,454 393,442 362,429 331,416 308,396 291,371 274,345 266,316 266,285 266,237 284,197 321,165 357,133 410,117 480,117 549,117 611,132 665,163 719,193 759,234 784,287 803,328 813,388 813,467 L 813,533 Z"
   id="glyph24" />
   <glyph
   unicode="Z"
   horiz-adv-x="1155"
   d="M 41,0 L 41,180 792,1119 C 845,1186 896,1244 944,1293 L 126,1293 126,1466 1176,1466 1176,1293 353,276 264,173 1200,173 1200,0 41,0 Z"
   id="glyph25" />
   <glyph
   unicode="V"
   horiz-adv-x="1336"
   d="M 577,0 L 9,1466 219,1466 600,401 C 631,316 656,236 677,161 700,241 726,321 756,401 L 1152,1466 1350,1466 776,0 577,0 Z"
   id="glyph26" />
   <glyph
   unicode="U"
   horiz-adv-x="1149"
   d="M 1120,1466 L 1314,1466 1314,619 C 1314,472 1297,355 1264,268 1231,181 1171,111 1084,57 997,2 882,-25 741,-25 604,-25 491,-1 404,46 317,93 254,162 217,252 180,341 161,464 161,619 L 161,1466 355,1466 355,620 C 355,493 367,399 391,339 414,278 455,232 513,199 570,166 641,150 724,150 867,150 968,182 1029,247 1090,312 1120,436 1120,620 L 1120,1466 Z"
   id="glyph27" />
   <glyph
   unicode="T"
   horiz-adv-x="1158"
   d="M 531,0 L 531,1293 48,1293 48,1466 1210,1466 1210,1293 725,1293 725,0 531,0 Z"
   id="glyph28" />
   <glyph
   unicode="S"
   horiz-adv-x="1163"
   d="M 92,471 L 275,487 C 284,414 304,354 336,307 367,260 416,222 483,193 550,164 625,149 708,149 782,149 847,160 904,182 961,204 1003,234 1031,273 1058,311 1072,353 1072,398 1072,444 1059,484 1032,519 1005,553 961,582 900,605 861,620 774,644 639,677 504,709 410,739 356,768 286,805 234,850 200,905 165,959 148,1020 148,1087 148,1161 169,1230 211,1295 253,1359 314,1408 395,1441 476,1474 565,1491 664,1491 773,1491 869,1474 952,1439 1035,1404 1098,1352 1143,1284 1188,1216 1212,1139 1215,1053 L 1029,1039 C 1019,1132 985,1202 928,1249 870,1296 785,1320 672,1320 555,1320 469,1299 416,1256 362,1213 335,1161 335,1100 335,1047 354,1004 392,970 429,936 527,901 685,866 842,830 950,799 1009,772 1094,733 1157,683 1198,623 1239,562 1259,493 1259,414 1259,336 1237,263 1192,194 1147,125 1083,71 1000,33 916,-6 822,-25 717,-25 584,-25 473,-6 384,33 294,72 224,130 173,208 122,285 95,373 92,471 Z"
   id="glyph29" />
   <glyph
   unicode="R"
   horiz-adv-x="1287"
   d="M 161,0 L 161,1466 811,1466 C 942,1466 1041,1453 1109,1427 1177,1400 1231,1354 1272,1287 1313,1220 1333,1147 1333,1066 1333,962 1299,874 1232,803 1165,732 1061,686 920,667 971,642 1010,618 1037,594 1094,542 1147,477 1198,399 L 1453,0 1209,0 1015,305 C 958,393 912,460 875,507 838,554 806,586 777,605 748,624 718,637 688,644 666,649 630,651 580,651 L 355,651 355,0 161,0 Z M 355,819 L 772,819 C 861,819 930,828 980,847 1030,865 1068,894 1094,935 1120,975 1133,1019 1133,1066 1133,1135 1108,1192 1058,1237 1007,1282 928,1304 819,1304 L 355,1304 355,819 Z"
   id="glyph30" />
   <glyph
   unicode="P"
   horiz-adv-x="1115"
   d="M 158,0 L 158,1466 711,1466 C 808,1466 883,1461 934,1452 1006,1440 1066,1417 1115,1384 1164,1350 1203,1303 1233,1242 1262,1181 1277,1115 1277,1042 1277,917 1237,812 1158,726 1079,639 935,596 728,596 L 352,596 352,0 158,0 Z M 352,769 L 731,769 C 856,769 945,792 998,839 1051,886 1077,951 1077,1036 1077,1097 1062,1150 1031,1194 1000,1237 959,1266 908,1280 875,1289 815,1293 727,1293 L 352,1293 352,769 Z"
   id="glyph31" />
   <glyph
   unicode="O"
   horiz-adv-x="1397"
   d="M 99,714 C 99,957 164,1148 295,1286 426,1423 594,1492 801,1492 936,1492 1058,1460 1167,1395 1276,1330 1359,1240 1416,1125 1473,1009 1501,878 1501,731 1501,582 1471,449 1411,332 1351,215 1266,126 1156,66 1046,5 927,-25 800,-25 662,-25 539,8 430,75 321,142 239,233 183,348 127,463 99,585 99,714 Z M 299,711 C 299,534 347,395 442,294 537,192 656,141 799,141 945,141 1065,192 1160,295 1254,398 1301,543 1301,732 1301,851 1281,956 1241,1045 1200,1134 1141,1203 1064,1252 986,1301 899,1325 802,1325 665,1325 547,1278 448,1184 349,1089 299,932 299,711 Z"
   id="glyph32" />
   <glyph
   unicode="N"
   horiz-adv-x="1151"
   d="M 156,0 L 156,1466 355,1466 1125,315 1125,1466 1311,1466 1311,0 1112,0 342,1152 342,0 156,0 Z"
   id="glyph33" />
   <glyph
   unicode="M"
   horiz-adv-x="1393"
   d="M 152,0 L 152,1466 444,1466 791,428 C 823,331 846,259 861,211 878,264 904,343 939,446 L 1290,1466 1551,1466 1551,0 1364,0 1364,1227 938,0 763,0 339,1248 339,0 152,0 Z"
   id="glyph34" />
   <glyph
   unicode="L"
   horiz-adv-x="913"
   d="M 150,0 L 150,1466 344,1466 344,173 1066,173 1066,0 150,0 Z"
   id="glyph35" />
   <glyph
   unicode="I"
   horiz-adv-x="194"
   d="M 191,0 L 191,1466 385,1466 385,0 191,0 Z"
   id="glyph36" />
   <glyph
   unicode="H"
   horiz-adv-x="1146"
   d="M 164,0 L 164,1466 358,1466 358,864 1120,864 1120,1466 1314,1466 1314,0 1120,0 1120,691 358,691 358,0 164,0 Z"
   id="glyph37" />
   <glyph
   unicode="G"
   horiz-adv-x="1351"
   d="M 844,575 L 844,747 1465,747 1465,204 C 1370,128 1271,71 1170,33 1069,-6 965,-25 858,-25 714,-25 583,6 466,68 348,129 259,218 199,335 139,452 109,582 109,726 109,869 139,1002 199,1126 258,1249 344,1341 456,1401 568,1461 697,1491 843,1491 949,1491 1045,1474 1131,1440 1216,1405 1283,1357 1332,1296 1381,1235 1418,1155 1443,1056 L 1268,1008 C 1246,1083 1219,1141 1186,1184 1153,1227 1107,1261 1046,1287 985,1312 918,1325 844,1325 755,1325 679,1312 614,1285 549,1258 497,1222 458,1178 418,1134 387,1086 365,1033 328,942 309,844 309,738 309,607 332,498 377,410 422,322 487,257 573,214 659,171 750,150 847,150 931,150 1013,166 1093,199 1173,231 1234,265 1275,302 L 1275,575 844,575 Z"
   id="glyph38" />
   <glyph
   unicode="F"
   horiz-adv-x="985"
   d="M 168,0 L 168,1466 1157,1466 1157,1293 362,1293 362,839 1050,839 1050,666 362,666 362,0 168,0 Z"
   id="glyph39" />
   <glyph
   unicode="E"
   horiz-adv-x="1090"
   d="M 162,0 L 162,1466 1222,1466 1222,1293 356,1293 356,844 1167,844 1167,672 356,672 356,173 1256,173 1256,0 162,0 Z"
   id="glyph40" />
   <glyph
   unicode="D"
   horiz-adv-x="1207"
   d="M 158,0 L 158,1466 663,1466 C 777,1466 864,1459 924,1445 1008,1426 1080,1391 1139,1340 1216,1275 1274,1191 1313,1090 1351,988 1370,872 1370,741 1370,630 1357,531 1331,445 1305,359 1272,288 1231,232 1190,175 1146,131 1098,99 1049,66 991,42 923,25 854,8 776,0 687,0 L 158,0 Z M 352,173 L 665,173 C 762,173 838,182 893,200 948,218 991,243 1024,276 1070,322 1106,384 1132,462 1157,539 1170,633 1170,744 1170,897 1145,1015 1095,1098 1044,1180 983,1235 911,1263 859,1283 775,1293 660,1293 L 352,1293 352,173 Z"
   id="glyph41" />
   <glyph
   unicode="C"
   horiz-adv-x="1291"
   d="M 1204,514 L 1398,465 C 1357,306 1284,184 1179,101 1073,17 944,-25 791,-25 633,-25 505,7 406,72 307,136 231,229 180,351 128,473 102,604 102,744 102,897 131,1030 190,1144 248,1257 331,1344 439,1403 546,1462 665,1491 794,1491 941,1491 1064,1454 1164,1379 1264,1304 1334,1199 1373,1064 L 1182,1019 C 1148,1126 1099,1203 1034,1252 969,1301 888,1325 790,1325 677,1325 583,1298 508,1244 432,1190 379,1118 348,1027 317,936 302,842 302,745 302,620 320,512 357,419 393,326 449,256 526,210 603,164 686,141 775,141 884,141 976,172 1051,235 1126,298 1177,391 1204,514 Z"
   id="glyph42" />
   <glyph
   unicode="B"
   horiz-adv-x="1103"
   d="M 150,0 L 150,1466 700,1466 C 812,1466 902,1451 970,1422 1037,1392 1090,1346 1129,1285 1167,1223 1186,1158 1186,1091 1186,1028 1169,969 1135,914 1101,859 1050,814 981,780 1070,754 1138,710 1186,647 1233,584 1257,510 1257,425 1257,356 1243,293 1214,234 1185,175 1149,129 1106,97 1063,65 1010,41 946,25 881,8 802,0 709,0 L 150,0 Z M 344,850 L 661,850 C 747,850 809,856 846,867 895,882 933,906 958,940 983,974 995,1017 995,1068 995,1117 983,1160 960,1197 937,1234 903,1259 860,1273 817,1286 742,1293 637,1293 L 344,1293 344,850 Z M 344,173 L 709,173 C 772,173 816,175 841,180 886,188 923,201 953,220 983,239 1008,266 1027,302 1046,337 1056,378 1056,425 1056,480 1042,527 1014,568 986,608 947,636 898,653 848,669 776,677 683,677 L 344,677 344,173 Z"
   id="glyph43" />
   <glyph
   unicode="A"
   horiz-adv-x="1366"
   d="M -3,0 L 560,1466 769,1466 1369,0 1148,0 977,444 364,444 203,0 -3,0 Z M 420,602 L 917,602 764,1008 C 717,1131 683,1233 660,1312 641,1218 615,1125 581,1032 L 420,602 Z"
   id="glyph44" />
   <glyph
   unicode=":"
   horiz-adv-x="205"
   d="M 185,857 L 185,1062 390,1062 390,857 185,857 Z M 185,0 L 185,205 390,205 390,0 185,0 Z"
   id="glyph45" />
   <glyph
   unicode="9"
   horiz-adv-x="961"
   d="M 112,339 L 285,355 C 300,274 328,215 369,178 410,141 463,123 528,123 583,123 632,136 674,161 715,186 749,220 776,263 803,305 825,362 843,434 861,506 870,579 870,654 870,662 870,674 869,690 833,633 784,586 722,551 659,515 592,497 519,497 398,497 295,541 211,629 127,717 85,833 85,977 85,1126 129,1245 217,1336 304,1427 414,1472 546,1472 641,1472 729,1446 808,1395 887,1344 947,1271 988,1176 1029,1081 1049,943 1049,763 1049,576 1029,427 988,316 947,205 887,120 807,62 726,4 632,-25 524,-25 409,-25 316,7 243,71 170,134 127,224 112,339 Z M 849,986 C 849,1089 822,1171 767,1232 712,1293 645,1323 568,1323 488,1323 418,1290 359,1225 300,1160 270,1075 270,971 270,878 298,802 355,744 411,685 480,656 563,656 646,656 715,685 769,744 822,802 849,883 849,986 Z"
   id="glyph46" />
   <glyph
   unicode="5"
   horiz-adv-x="969"
   d="M 85,384 L 274,400 C 288,308 321,239 372,193 423,146 484,123 556,123 643,123 716,156 776,221 836,286 866,373 866,481 866,584 837,665 780,724 722,783 646,813 553,813 495,813 443,800 396,774 349,747 313,713 286,671 L 117,693 259,1446 988,1446 988,1274 403,1274 324,880 C 412,941 504,972 601,972 729,972 837,928 925,839 1013,750 1057,636 1057,497 1057,364 1018,250 941,153 847,34 719,-25 556,-25 423,-25 314,12 230,87 145,162 97,261 85,384 Z"
   id="glyph47" />
   <glyph
   unicode="3"
   horiz-adv-x="957"
   d="M 86,387 L 266,411 C 287,309 322,236 372,191 421,146 482,123 553,123 638,123 709,152 768,211 826,270 855,342 855,429 855,512 828,580 774,634 720,687 651,714 568,714 534,714 492,707 441,694 L 461,852 C 473,851 483,850 490,850 567,850 636,870 697,910 758,950 789,1012 789,1095 789,1161 767,1216 722,1259 677,1302 620,1324 549,1324 479,1324 421,1302 374,1258 327,1214 297,1148 284,1060 L 104,1092 C 126,1213 176,1306 254,1373 332,1439 429,1472 545,1472 625,1472 699,1455 766,1421 833,1386 885,1339 921,1280 956,1221 974,1158 974,1091 974,1028 957,970 923,918 889,866 839,825 772,794 859,774 926,733 974,670 1022,607 1046,528 1046,433 1046,305 999,197 906,108 813,19 695,-26 552,-26 423,-26 317,12 232,89 147,166 98,265 86,387 Z"
   id="glyph48" />
   <glyph
   unicode="2"
   horiz-adv-x="968"
   d="M 1031,173 L 1031,0 62,0 C 61,43 68,85 83,125 108,191 147,256 202,320 256,384 334,458 437,542 596,673 704,776 760,853 816,929 844,1001 844,1069 844,1140 819,1201 768,1250 717,1299 650,1323 568,1323 481,1323 412,1297 360,1245 308,1193 282,1121 281,1029 L 96,1048 C 109,1186 156,1291 239,1364 322,1436 433,1472 572,1472 713,1472 824,1433 906,1355 988,1277 1029,1180 1029,1065 1029,1006 1017,949 993,892 969,835 929,776 874,713 818,650 725,564 596,455 488,364 419,303 388,271 357,238 332,206 312,173 L 1031,173 Z"
   id="glyph49" />
   <glyph
   unicode="1"
   horiz-adv-x="540"
   d="M 763,0 L 583,0 583,1147 C 540,1106 483,1064 413,1023 342,982 279,951 223,930 L 223,1104 C 324,1151 412,1209 487,1276 562,1343 616,1409 647,1472 L 763,1472 763,0 Z"
   id="glyph50" />
   <glyph
   unicode="0"
   horiz-adv-x="953"
   d="M 85,723 C 85,896 103,1036 139,1142 174,1247 227,1329 298,1386 368,1443 456,1472 563,1472 642,1472 711,1456 770,1425 829,1393 878,1347 917,1288 956,1228 986,1155 1008,1070 1030,984 1041,868 1041,723 1041,551 1023,412 988,307 953,201 900,119 830,62 759,4 670,-25 563,-25 422,-25 311,26 230,127 133,249 85,448 85,723 Z M 270,723 C 270,482 298,322 355,243 411,163 480,123 563,123 646,123 715,163 772,243 828,323 856,483 856,723 856,964 828,1125 772,1204 715,1283 645,1323 561,1323 478,1323 412,1288 363,1218 301,1129 270,964 270,723 Z"
   id="glyph51" />
   <glyph
   unicode="."
   horiz-adv-x="205"
   d="M 186,0 L 186,205 391,205 391,0 186,0 Z"
   id="glyph52" />
   <glyph
   unicode="-"
   horiz-adv-x="552"
   d="M 65,440 L 65,621 618,621 618,440 65,440 Z"
   id="glyph53" />
   <glyph
   unicode=" "
   horiz-adv-x="556"
   id="glyph54" />
  </font><font
       id="EmbeddedFont_2"
       horiz-adv-x="2048"
       horiz-origin-x="0"
       horiz-origin-y="0"
       vert-origin-x="512"
       vert-origin-y="768"
       vert-adv-y="1024">
   <font-face
   font-family="Arial embedded"
   units-per-em="2048"
   font-weight="bold"
   font-style="normal"
   ascent="1852"
   descent="423"
   id="font-face54" />
   <missing-glyph
   horiz-adv-x="2048"
   d="M 0,0 L 2047,0 2047,2047 0,2047 0,0 Z"
   id="missing-glyph54" />
   <glyph
   unicode="Ó"
   horiz-adv-x="1417"
   d="M 89,724 C 89,873 111,999 156,1100 189,1175 235,1242 293,1301 350,1360 413,1404 482,1433 573,1472 679,1491 798,1491 1014,1491 1187,1424 1317,1290 1446,1156 1511,970 1511,731 1511,494 1447,309 1318,176 1189,42 1017,-25 802,-25 584,-25 411,42 282,175 153,308 89,491 89,724 Z M 394,734 C 394,568 432,442 509,357 586,271 683,228 801,228 919,228 1016,271 1092,356 1167,441 1205,568 1205,738 1205,906 1168,1031 1095,1114 1021,1197 923,1238 801,1238 679,1238 581,1196 506,1113 431,1029 394,903 394,734 Z M 618,1550 L 756,1849 1071,1849 796,1550 618,1550 Z"
   id="glyph55" />
   <glyph
   unicode="Á"
   horiz-adv-x="1465"
   d="M 1471,0 L 1149,0 1021,333 435,333 314,0 0,0 571,1466 884,1466 1471,0 Z M 926,580 L 724,1124 526,580 926,580 Z M 554,1550 L 692,1849 1007,1849 732,1550 554,1550 Z"
   id="glyph56" />
   <glyph
   unicode="Z"
   horiz-adv-x="1187"
   d="M 22,0 L 22,267 792,1218 109,1218 109,1466 1182,1466 1182,1236 379,247 1213,247 1213,0 22,0 Z"
   id="glyph57" />
   <glyph
   unicode="V"
   horiz-adv-x="1359"
   d="M 523,0 L -1,1466 320,1466 691,381 1050,1466 1364,1466 839,0 523,0 Z"
   id="glyph58" />
   <glyph
   unicode="U"
   horiz-adv-x="1165"
   d="M 147,1466 L 443,1466 443,672 C 443,546 447,464 454,427 467,367 497,319 545,283 592,246 657,228 740,228 824,228 887,245 930,280 973,314 998,356 1007,406 1016,456 1020,539 1020,655 L 1020,1466 1316,1466 1316,696 C 1316,520 1308,396 1292,323 1276,250 1247,189 1204,139 1161,89 1103,49 1031,20 959,-10 865,-25 749,-25 609,-25 503,-9 431,24 358,56 301,98 259,150 217,201 189,255 176,312 157,396 147,520 147,684 L 147,1466 Z"
   id="glyph59" />
   <glyph
   unicode="T"
   horiz-adv-x="1161"
   d="M 479,0 L 479,1218 44,1218 44,1466 1209,1466 1209,1218 775,1218 775,0 479,0 Z"
   id="glyph60" />
   <glyph
   unicode="S"
   horiz-adv-x="1188"
   d="M 74,477 L 362,505 C 379,408 415,337 468,292 521,247 592,224 682,224 777,224 849,244 898,285 946,325 970,372 970,426 970,461 960,490 940,515 919,539 884,560 833,578 798,590 719,611 596,642 437,681 326,730 262,787 172,868 127,966 127,1082 127,1157 148,1227 191,1292 233,1357 294,1406 374,1440 453,1474 549,1491 662,1491 846,1491 985,1451 1078,1370 1171,1289 1219,1182 1224,1047 L 928,1034 C 915,1109 888,1164 847,1197 805,1230 742,1246 659,1246 573,1246 506,1228 457,1193 426,1170 410,1140 410,1102 410,1067 425,1038 454,1013 491,982 582,949 726,915 870,881 977,846 1046,810 1115,773 1169,724 1208,661 1247,598 1266,520 1266,427 1266,343 1243,264 1196,191 1149,118 1083,63 998,28 913,-8 806,-26 679,-26 494,-26 351,17 252,103 153,188 93,313 74,477 Z"
   id="glyph61" />
   <glyph
   unicode="R"
   horiz-adv-x="1313"
   d="M 150,0 L 150,1466 773,1466 C 930,1466 1044,1453 1115,1427 1186,1400 1242,1353 1285,1286 1328,1219 1349,1142 1349,1055 1349,945 1317,854 1252,783 1187,711 1091,666 962,647 1026,610 1079,569 1121,524 1162,479 1218,400 1289,286 L 1468,0 1114,0 900,319 C 824,433 772,505 744,535 716,564 686,585 655,596 624,607 574,612 506,612 L 446,612 446,0 150,0 Z M 446,846 L 665,846 C 807,846 896,852 931,864 966,876 994,897 1014,926 1034,955 1044,992 1044,1036 1044,1085 1031,1125 1005,1156 978,1186 941,1205 893,1213 869,1216 797,1218 677,1218 L 446,1218 446,846 Z"
   id="glyph62" />
   <glyph
   unicode="Q"
   horiz-adv-x="1471"
   d="M 1329,186 C 1402,134 1481,93 1566,62 L 1457,-147 C 1412,-134 1369,-115 1326,-92 1317,-87 1251,-44 1129,38 1033,-4 927,-25 810,-25 585,-25 408,41 281,174 153,307 89,493 89,733 89,972 153,1159 281,1292 409,1425 583,1491 802,1491 1019,1491 1192,1425 1319,1292 1446,1159 1510,972 1510,733 1510,606 1492,495 1457,399 1430,326 1388,255 1329,186 Z M 1091,353 C 1129,398 1158,452 1177,515 1196,578 1205,651 1205,733 1205,902 1168,1029 1093,1113 1018,1196 921,1238 800,1238 679,1238 582,1196 507,1112 432,1028 394,902 394,733 394,562 432,434 507,349 582,264 676,221 791,221 834,221 874,228 912,242 852,281 791,312 729,334 L 812,503 C 909,470 1002,420 1091,353 Z"
   id="glyph63" />
   <glyph
   unicode="P"
   horiz-adv-x="1119"
   d="M 149,0 L 149,1466 624,1466 C 804,1466 921,1459 976,1444 1060,1422 1130,1374 1187,1301 1244,1227 1272,1132 1272,1015 1272,925 1256,849 1223,788 1190,727 1149,679 1099,644 1048,609 997,585 945,574 874,560 772,553 638,553 L 445,553 445,0 149,0 Z M 445,1218 L 445,802 607,802 C 724,802 802,810 841,825 880,840 911,864 934,897 956,930 967,968 967,1011 967,1064 951,1108 920,1143 889,1178 849,1199 801,1208 766,1215 695,1218 588,1218 L 445,1218 Z"
   id="glyph64" />
   <glyph
   unicode="O"
   horiz-adv-x="1417"
   d="M 89,724 C 89,873 111,999 156,1100 189,1175 235,1242 293,1301 350,1360 413,1404 482,1433 573,1472 679,1491 798,1491 1014,1491 1187,1424 1317,1290 1446,1156 1511,970 1511,731 1511,494 1447,309 1318,176 1189,42 1017,-25 802,-25 584,-25 411,42 282,175 153,308 89,491 89,724 Z M 394,734 C 394,568 432,442 509,357 586,271 683,228 801,228 919,228 1016,271 1092,356 1167,441 1205,568 1205,738 1205,906 1168,1031 1095,1114 1021,1197 923,1238 801,1238 679,1238 581,1196 506,1113 431,1029 394,903 394,734 Z"
   id="glyph65" />
   <glyph
   unicode="N"
   horiz-adv-x="1159"
   d="M 152,0 L 152,1466 440,1466 1040,487 1040,1466 1315,1466 1315,0 1018,0 427,956 427,0 152,0 Z"
   id="glyph66" />
   <glyph
   unicode="M"
   horiz-adv-x="1410"
   d="M 145,0 L 145,1466 588,1466 854,466 1117,1466 1561,1466 1561,0 1286,0 1286,1154 995,0 710,0 420,1154 420,0 145,0 Z"
   id="glyph67" />
   <glyph
   unicode="L"
   horiz-adv-x="1028"
   d="M 157,0 L 157,1454 453,1454 453,247 1189,247 1189,0 157,0 Z"
   id="glyph68" />
   <glyph
   unicode="J"
   horiz-adv-x="935"
   d="M 678,1466 L 973,1466 973,538 C 973,417 962,323 941,258 912,173 860,104 785,53 710,1 610,-25 487,-25 342,-25 231,16 153,97 75,178 36,296 35,453 L 314,485 C 317,401 330,342 351,307 383,254 432,228 497,228 563,228 610,247 637,285 664,322 678,400 678,519 L 678,1466 Z"
   id="glyph69" />
   <glyph
   unicode="I"
   horiz-adv-x="296"
   d="M 140,0 L 140,1466 436,1466 436,0 140,0 Z"
   id="glyph70" />
   <glyph
   unicode="H"
   horiz-adv-x="1168"
   d="M 150,0 L 150,1466 446,1466 446,889 1026,889 1026,1466 1322,1466 1322,0 1026,0 1026,641 446,641 446,0 150,0 Z"
   id="glyph71" />
   <glyph
   unicode="G"
   horiz-adv-x="1366"
   d="M 831,539 L 831,786 1469,786 1469,202 C 1407,142 1317,89 1200,44 1082,-2 963,-25 842,-25 689,-25 555,7 441,72 327,136 241,228 184,348 127,467 98,597 98,738 98,891 130,1026 194,1145 258,1264 352,1355 475,1418 569,1467 686,1491 826,1491 1008,1491 1150,1453 1253,1377 1355,1300 1421,1195 1450,1060 L 1156,1005 C 1135,1077 1097,1134 1040,1176 983,1217 911,1238 826,1238 697,1238 594,1197 518,1115 441,1033 403,911 403,750 403,576 442,446 519,359 596,272 698,228 823,228 885,228 947,240 1010,265 1072,289 1125,318 1170,353 L 1170,539 831,539 Z"
   id="glyph72" />
   <glyph
   unicode="E"
   horiz-adv-x="1111"
   d="M 149,0 L 149,1466 1236,1466 1236,1218 445,1218 445,893 1181,893 1181,646 445,646 445,247 1264,247 1264,0 149,0 Z"
   id="glyph73" />
   <glyph
   unicode="D"
   horiz-adv-x="1224"
   d="M 148,1466 L 689,1466 C 811,1466 904,1457 968,1438 1054,1413 1128,1368 1189,1303 1250,1238 1297,1159 1329,1066 1361,972 1377,856 1377,719 1377,598 1362,494 1332,407 1295,300 1243,214 1175,148 1124,98 1054,59 967,31 902,10 814,0 705,0 L 148,0 148,1466 Z M 444,1218 L 444,247 665,247 C 748,247 807,252 844,261 892,273 932,293 964,322 995,351 1021,398 1041,464 1061,529 1071,619 1071,732 1071,845 1061,932 1041,993 1021,1054 993,1101 957,1135 921,1169 875,1192 820,1204 779,1213 698,1218 577,1218 L 444,1218 Z"
   id="glyph74" />
   <glyph
   unicode="C"
   horiz-adv-x="1272"
   d="M 1087,539 L 1374,448 C 1330,288 1257,169 1155,92 1052,14 922,-25 765,-25 570,-25 410,42 285,175 160,308 97,489 97,720 97,964 160,1154 286,1289 412,1424 578,1491 783,1491 962,1491 1108,1438 1220,1332 1287,1269 1337,1179 1370,1062 L 1077,992 C 1060,1068 1024,1128 969,1172 914,1216 847,1238 768,1238 659,1238 571,1199 504,1121 436,1043 402,917 402,742 402,557 435,425 502,346 569,267 655,228 762,228 841,228 908,253 965,303 1022,353 1062,432 1087,539 Z"
   id="glyph75" />
   <glyph
   unicode="B"
   horiz-adv-x="1223"
   d="M 150,1466 L 736,1466 C 852,1466 939,1461 996,1452 1053,1442 1104,1422 1149,1391 1194,1360 1231,1320 1261,1269 1291,1218 1306,1160 1306,1097 1306,1028 1288,965 1251,908 1214,851 1163,808 1100,779 1189,753 1258,709 1306,646 1354,583 1378,509 1378,425 1378,358 1363,293 1332,230 1301,167 1258,116 1205,79 1151,41 1085,18 1006,9 957,4 838,1 649,1 L 150,1 150,1466 Z M 446,1222 L 446,883 640,883 C 755,883 827,885 855,888 906,894 946,912 975,941 1004,970 1018,1008 1018,1055 1018,1100 1006,1137 981,1166 956,1194 918,1211 869,1217 840,1220 755,1222 616,1222 L 446,1222 Z M 446,639 L 446,247 720,247 C 827,247 894,250 923,256 967,264 1003,284 1031,315 1058,346 1072,387 1072,439 1072,483 1061,520 1040,551 1019,582 988,604 948,618 907,632 820,639 685,639 L 446,639 Z"
   id="glyph76" />
   <glyph
   unicode="A"
   horiz-adv-x="1465"
   d="M 1471,0 L 1149,0 1021,333 435,333 314,0 0,0 571,1466 884,1466 1471,0 Z M 926,580 L 724,1124 526,580 926,580 Z"
   id="glyph77" />
   <glyph
   unicode="."
   horiz-adv-x="281"
   d="M 147,0 L 147,281 428,281 428,0 147,0 Z"
   id="glyph78" />
   <glyph
   unicode=" "
   horiz-adv-x="556"
   id="glyph79" />
  </font><font
       id="EmbeddedFont_3"
       horiz-adv-x="2048"
       horiz-origin-x="0"
       horiz-origin-y="0"
       vert-origin-x="512"
       vert-origin-y="768"
       vert-adv-y="1024">
   <font-face
   font-family="Courgette embedded"
   units-per-em="2048"
   font-weight="normal"
   font-style="normal"
   ascent="2170"
   descent="609"
   id="font-face79" />
   <missing-glyph
   horiz-adv-x="2048"
   d="M 0,0 L 2047,0 2047,2047 0,2047 0,0 Z"
   id="missing-glyph79" />
   <glyph
   unicode="P"
   horiz-adv-x="933"
   d="M 586,1462 C 777,1462 916,1424 1004,1349 1091,1274 1135,1168 1135,1032 1135,951 1117,876 1080,805 1044,735 983,678 898,635 813,591 697,569 551,569 L 383,569 383,0 199,0 199,1462 586,1462 Z M 569,1304 L 383,1304 383,727 530,727 C 670,727 773,749 842,794 910,839 944,916 944,1024 944,1118 914,1188 854,1234 794,1281 699,1304 569,1304 Z"
   id="glyph80" />
   <glyph
   unicode="O"
   horiz-adv-x="1344"
   d="M 1475,734 C 1475,582 1449,450 1398,337 1347,225 1271,137 1171,74 1072,11 948,-20 801,-20 649,-20 523,11 423,74 323,137 248,225 199,338 150,452 125,584 125,736 125,886 150,1017 199,1129 248,1241 323,1328 423,1391 523,1454 650,1485 803,1485 949,1485 1072,1454 1171,1392 1271,1330 1347,1242 1398,1130 1449,1017 1475,885 1475,734 Z M 319,734 C 319,549 358,404 436,298 514,193 636,140 801,140 967,140 1089,193 1165,298 1242,404 1280,549 1280,734 1280,918 1242,1062 1165,1167 1089,1271 968,1323 803,1323 638,1323 516,1271 437,1167 359,1062 319,918 319,734 Z"
   id="glyph81" />
   <glyph
   unicode="M"
   horiz-adv-x="1455"
   d="M 844,0 L 363,1282 354,1282 C 358,1240 362,1183 365,1111 367,1039 369,964 369,887 L 369,0 199,0 199,1462 471,1462 922,264 930,264 1389,1462 1659,1462 1659,0 1477,0 1477,899 C 1477,970 1478,1040 1482,1110 1485,1179 1488,1236 1491,1280 L 1483,1280 995,0 844,0 Z"
   id="glyph82" />
   <glyph
   unicode="L"
   horiz-adv-x="821"
   d="M 199,0 L 199,1462 383,1462 383,164 1022,164 1022,0 199,0 Z"
   id="glyph83" />
   <glyph
   unicode="I"
   horiz-adv-x="528"
   d="M 610,0 L 82,0 82,106 254,145 254,1315 82,1356 82,1462 610,1462 610,1356 438,1315 438,145 610,106 610,0 Z"
   id="glyph84" />
   <glyph
   unicode="D"
   horiz-adv-x="1167"
   d="M 1370,745 C 1370,498 1303,312 1168,187 1034,62 847,0 606,0 L 199,0 199,1462 649,1462 C 797,1462 924,1435 1032,1380 1140,1326 1223,1245 1282,1140 1341,1034 1370,902 1370,745 Z M 1176,739 C 1176,934 1127,1077 1031,1168 935,1259 799,1304 623,1304 L 383,1304 383,158 582,158 C 978,158 1176,352 1176,739 Z"
   id="glyph85" />
   <glyph
   unicode="A"
   horiz-adv-x="1301"
   d="M 1116,1 L 940,453 360,453 186,1 0,1 571,1469 737,1469 1307,1 1116,1 Z M 721,1059 C 717,1070 710,1090 700,1118 691,1147 682,1177 673,1207 664,1238 657,1262 651,1278 642,1236 631,1195 618,1154 606,1114 596,1082 588,1059 L 422,617 885,617 721,1059 Z"
   id="glyph86" />
  </font><font
       id="EmbeddedFont_4"
       horiz-adv-x="2048"
       horiz-origin-x="0"
       horiz-origin-y="0"
       vert-origin-x="512"
       vert-origin-y="768"
       vert-adv-y="1024">
   <font-face
   font-family="ScriptMT embedded"
   units-per-em="2048"
   font-weight="bold"
   font-style="normal"
   ascent="2170"
   descent="609"
   id="font-face86" />
   <missing-glyph
   horiz-adv-x="2048"
   d="M 0,0 L 2047,0 2047,2047 0,2047 0,0 Z"
   id="missing-glyph86" />
   <glyph
   unicode="x"
   horiz-adv-x="1159"
   d="M 389,572 L 29,1119 375,1119 592,762 811,1119 1157,1119 793,572 1174,0 827,0 592,383 356,0 10,0 389,572 Z"
   id="glyph87" />
   <glyph
   unicode="s"
   horiz-adv-x="846"
   d="M 940,332 C 940,219 900,132 820,71 740,10 621,-20 463,-20 385,-20 318,-15 262,-5 206,6 150,22 94,46 L 94,298 C 154,270 219,248 289,230 358,212 420,203 473,203 533,203 576,212 601,230 626,248 639,271 639,300 639,319 634,336 624,351 613,366 591,383 557,402 523,421 470,446 397,476 328,506 270,535 225,565 180,594 147,630 125,671 103,713 92,765 92,828 92,932 132,1010 213,1062 294,1113 401,1139 535,1139 604,1139 670,1133 733,1119 796,1105 861,1083 928,1051 L 836,832 C 781,855 729,875 680,890 631,906 581,914 530,914 440,914 395,889 395,840 395,823 401,806 413,792 424,778 447,762 480,746 514,730 563,708 629,681 693,655 748,628 795,600 841,572 877,537 902,495 927,453 940,399 940,332 Z"
   id="glyph88" />
   <glyph
   unicode="r"
   horiz-adv-x="726"
   d="M 784,1139 C 799,1139 817,1138 838,1137 858,1136 875,1134 887,1131 L 864,844 C 855,847 841,849 822,851 804,853 788,854 774,854 722,854 672,845 625,827 577,808 538,778 509,737 480,697 465,641 465,570 L 465,0 160,0 160,1119 391,1119 436,930 451,930 C 483,987 528,1037 586,1078 643,1119 709,1139 784,1139 Z"
   id="glyph89" />
   <glyph
   unicode="o"
   horiz-adv-x="1080"
   d="M 1176,562 C 1176,376 1127,233 1029,132 932,31 799,-20 631,-20 527,-20 435,3 353,48 272,93 208,159 162,245 115,332 92,438 92,562 92,748 141,891 238,990 335,1090 468,1140 637,1140 742,1140 835,1117 915,1072 996,1027 1059,962 1106,877 1152,791 1176,686 1176,562 Z M 403,562 C 403,451 422,368 458,311 494,254 553,226 635,226 715,226 774,254 810,311 846,368 864,451 864,562 864,673 846,756 810,811 774,866 715,894 633,894 552,894 494,866 458,811 422,756 403,673 403,562 Z"
   id="glyph90" />
   <glyph
   unicode="m"
   horiz-adv-x="1691"
   d="M 1473,1139 C 1599,1139 1695,1107 1760,1042 1825,977 1858,873 1858,729 L 1858,0 1552,0 1552,653 C 1552,815 1496,895 1384,895 1304,895 1247,867 1212,809 1178,752 1161,669 1161,561 L 1161,0 856,0 856,653 C 856,815 800,895 688,895 603,895 545,863 513,800 481,736 465,645 465,526 L 465,0 160,0 160,1119 393,1119 434,975 451,975 C 485,1032 531,1074 591,1100 650,1126 712,1139 776,1139 858,1139 928,1126 985,1099 1042,1072 1086,1031 1116,975 L 1143,975 C 1177,1032 1224,1074 1285,1100 1346,1126 1408,1139 1473,1139 Z"
   id="glyph91" />
   <glyph
   unicode="l"
   horiz-adv-x="306"
   d="M 465,0 L 160,0 160,1557 465,1557 465,0 Z"
   id="glyph92" />
   <glyph
   unicode="i"
   horiz-adv-x="332"
   d="M 313,1557 C 358,1557 397,1546 430,1525 463,1504 479,1465 479,1407 479,1351 463,1313 430,1291 397,1269 358,1258 313,1258 267,1258 228,1269 196,1291 164,1313 147,1351 147,1407 147,1465 164,1504 196,1525 228,1546 267,1557 313,1557 Z M 465,1119 L 465,0 160,0 160,1119 465,1119 Z"
   id="glyph93" />
   <glyph
   unicode="g"
   horiz-adv-x="1041"
   d="M 522,1139 C 660,1139 768,1084 846,975 L 854,975 879,1118 1137,1118 1137,-2 C 1137,-162 1090,-284 995,-367 901,-450 762,-492 578,-492 498,-492 425,-487 357,-478 290,-468 224,-451 160,-426 L 160,-183 C 298,-240 443,-269 596,-269 753,-269 831,-184 831,-15 L 831,8 C 831,31 833,55 835,80 837,104 838,126 840,145 L 831,145 C 793,87 748,44 694,18 641,-8 581,-21 514,-21 382,-21 278,30 204,132 129,234 92,375 92,557 92,740 130,883 207,985 283,1088 388,1139 522,1139 Z M 619,891 C 475,891 403,778 403,553 403,330 477,219 623,219 700,219 758,241 796,286 833,330 852,407 852,518 L 852,555 C 852,675 834,761 797,813 760,865 700,891 619,891 Z"
   id="glyph94" />
   <glyph
   unicode="e"
   horiz-adv-x="1027"
   d="M 621,1139 C 775,1139 897,1095 987,1007 1077,919 1122,794 1122,631 L 1122,484 401,484 C 404,398 430,330 478,281 527,232 594,207 680,207 752,207 818,215 877,229 935,243 996,265 1059,296 L 1059,60 C 1004,33 947,12 886,-1 825,-14 752,-20 666,-20 554,-20 455,1 369,42 283,84 215,147 166,232 117,317 92,423 92,551 92,682 114,791 159,878 203,965 265,1030 344,1074 423,1117 515,1139 621,1139 Z M 623,922 C 564,922 515,903 476,865 437,827 414,767 408,687 L 836,687 C 834,755 816,811 782,856 748,900 695,922 623,922 Z"
   id="glyph95" />
   <glyph
   unicode="d"
   horiz-adv-x="1041"
   d="M 514,-21 C 390,-21 288,28 210,126 131,223 92,367 92,557 92,748 132,893 211,991 290,1090 394,1139 522,1139 603,1139 669,1123 721,1092 773,1060 814,1022 844,975 L 854,975 C 850,997 845,1029 840,1070 834,1112 831,1155 831,1198 L 831,1557 1137,1557 1137,0 903,0 844,145 831,145 C 801,99 761,60 711,27 660,-5 595,-21 514,-21 Z M 621,223 C 705,223 765,248 799,298 833,348 851,422 852,522 L 852,555 C 852,664 835,748 802,805 768,862 707,891 616,891 550,891 497,862 459,804 421,746 401,662 401,553 401,444 421,361 459,306 497,251 551,223 621,223 Z"
   id="glyph96" />
   <glyph
   unicode="c"
   horiz-adv-x="895"
   d="M 614,-20 C 448,-20 319,26 228,118 138,211 92,356 92,554 92,690 115,802 162,888 208,974 273,1037 355,1078 438,1119 533,1140 641,1140 717,1140 784,1132 841,1117 897,1102 947,1085 989,1064 L 899,828 C 851,848 807,863 765,876 723,888 682,894 641,894 483,894 403,781 403,556 403,444 424,361 466,308 508,255 566,228 641,228 705,228 762,236 811,254 860,271 908,294 954,324 L 954,64 C 908,34 859,12 808,-1 757,-14 692,-20 614,-20 Z"
   id="glyph97" />
   <glyph
   unicode="a"
   horiz-adv-x="994"
   d="M 619,1141 C 769,1141 884,1109 964,1044 1043,979 1083,880 1083,746 L 1083,0 870,0 811,152 803,152 C 755,92 705,48 651,21 598,-6 525,-20 432,-20 332,-20 250,9 184,67 119,125 86,214 86,334 86,453 128,541 211,598 294,654 419,685 586,691 L 780,697 780,746 C 780,805 765,848 734,875 703,902 661,916 606,916 552,916 498,908 446,892 395,877 343,857 291,834 L 190,1041 C 251,1072 317,1097 390,1115 463,1132 539,1141 619,1141 Z M 662,515 C 563,512 495,494 457,461 418,429 399,386 399,332 399,286 413,253 440,233 468,213 503,203 547,203 612,203 668,223 713,262 758,301 780,356 780,427 L 780,519 662,515 Z"
   id="glyph98" />
   <glyph
   unicode="M"
   horiz-adv-x="1556"
   d="M 803,0 L 451,1147 442,1147 C 444,1120 446,1079 449,1024 451,970 454,911 457,849 459,787 461,731 461,680 L 461,0 184,0 184,1463 606,1463 952,344 958,344 1325,1463 1747,1463 1747,0 1458,0 1458,692 C 1458,739 1459,792 1461,852 1463,912 1465,969 1467,1023 1469,1077 1471,1118 1473,1145 L 1464,1145 1087,0 803,0 Z"
   id="glyph99" />
   <glyph
   unicode="L"
   horiz-adv-x="900"
   d="M 184,0 L 184,1463 494,1463 494,256 1087,256 1087,0 184,0 Z"
   id="glyph100" />
   <glyph
   unicode="E"
   horiz-adv-x="839"
   d="M 1026,0 L 184,0 184,1463 1026,1463 1026,1209 494,1209 494,887 989,887 989,633 494,633 494,256 1026,256 1026,0 Z"
   id="glyph101" />
   <glyph
   unicode="A"
   horiz-adv-x="1407"
   d="M 1079,0 L 973,348 440,348 334,0 0,0 516,1469 895,1469 1413,0 1079,0 Z M 793,948 C 786,971 777,1001 766,1036 755,1072 744,1108 733,1145 722,1182 713,1214 707,1241 700,1214 691,1180 679,1140 667,1099 656,1061 646,1025 636,989 628,963 623,948 L 518,608 899,608 793,948 Z"
   id="glyph102" />
   <glyph
   unicode=":"
   horiz-adv-x="350"
   d="M 117,969 C 117,1032 134,1076 168,1101 202,1126 244,1139 293,1139 341,1139 382,1126 416,1101 450,1076 467,1032 467,969 467,909 450,866 416,839 382,812 341,799 293,799 244,799 202,812 168,839 134,866 117,909 117,969 Z M 117,143 C 117,206 134,250 168,275 202,300 244,313 293,313 341,313 382,300 416,275 450,250 467,206 467,143 467,83 450,40 416,13 382,-14 341,-27 293,-27 244,-27 202,-14 168,13 134,40 117,83 117,143 Z"
   id="glyph103" />
   <glyph
   unicode="*"
   horiz-adv-x="986"
   d="M 688,1557 L 647,1188 1020,1293 1053,1041 713,1016 936,719 709,598 553,912 416,600 180,719 401,1016 63,1043 102,1293 467,1188 426,1557 688,1557 Z"
   id="glyph104" />
   <glyph
   unicode=" "
   horiz-adv-x="529"
   id="glyph105" />
  </font>
</defs>
</svg>
